<svg id="eNHr7FBg3Xx1" xmlns="http://www.w3.org/2000/svg" xmlns:xlink="http://www.w3.org/1999/xlink" viewBox="0 0 400 400" shape-rendering="geometricPrecision" text-rendering="geometricPrecision"><path d="M200,176.660852L69.513056,105.932369L200,35.189162l125.826698,70.743206L200,176.660852v167.49016l125.826698-68.232181q0-145.855568,0-145.855568" transform="translate(0 0.000001)" fill="none" stroke="#3f5787" stroke-width="0.8"/><path d="M69.513056,105.932371v169.98646L200,344.151012" transform="translate(0 0.000001)" fill="none" stroke="#3f5787" stroke-width="0.8"/><path d="M325.826698,105.932369v24.130895" transform="translate(0 0.000001)" fill="none" stroke="#3f5787" stroke-width="0.8"/><ellipse rx="20.782188" ry="27.633174" transform="matrix(.633096 0.042254-.050078 0.750338 95.878988 150.578466)" stroke-width="0"/><ellipse rx="20.782188" ry="27.633174" transform="matrix(.633096 0.042254-.050078 0.750338 95.878988 203.429357)" stroke-width="0"/><ellipse rx="20.782188" ry="27.633174" transform="matrix(.633096 0.042254-.050078 0.750338 93.111333 254.507093)" stroke-width="0"/><ellipse rx="20.782188" ry="27.633174" transform="matrix(.63336-.038083 0.045136 0.750651 165.230476 296.159327)" stroke-width="0"/><path d="M152.06787,296.95078c-.68884-11.45597,4.64585-21.09722,11.91536-21.53433s13.72102,8.49545,14.40986,19.95142-4.64585,21.09722-11.91536,21.53433-13.72102-8.49545-14.40986-19.95142ZM79.95422,253.62897c.76427-11.45119,7.27447-20.34106,14.54094-19.85609s12.53755,10.16115,11.77328,21.61233-7.27447,20.34106-14.54094,19.85609-12.53755-10.16115-11.77328-21.61233Zm74.86165-61.32343c.28683-11.47308,6.42124-20.6263,13.70161-20.44429s12.94974,9.63032,12.66292,21.1034-6.42124,20.6263-13.70161,20.44429-12.94974-9.63032-12.66292-21.1034Zm-72.09399-42.6052c.76427-11.45119,7.27447-20.34106,14.54094-19.85609s12.53755,10.16115,11.77328,21.61233-7.27447,20.34106-14.54094,19.85609-12.53755-10.16115-11.77328-21.61233Z" transform="matrix(-.99903-.044036-.044036 0.99903 411.350035 9.000782)" stroke-width="0"/><ellipse rx="20.782188" ry="27.633174" transform="matrix(.634425 0.010039-.011898 0.751913 167.998132 244.388851)" stroke-width="0"/><ellipse rx="20.782188" ry="27.633174" transform="matrix(.634306 0.015858-.018794 0.751772 167.998132 192.635095)" stroke-width="0"/><ellipse rx="20.782188" ry="27.633174" transform="matrix(1.202956 0.030074-.013812 0.552476 197.669877 63.785535)" stroke-width="0"/><ellipse rx="20.782188" ry="27.633174" transform="matrix(1.202956 0.030074-.013812 0.552476 275.22255 105.932372)" stroke-width="0"/><ellipse rx="20.782188" ry="27.633174" transform="matrix(1.202956 0.030074-.013812 0.552476 131.650169 104.682374)" stroke-width="0"/><ellipse rx="20.782188" ry="27.633174" transform="matrix(1.202956 0.030074-.013812 0.552476 198.433208 144.857806)" stroke-width="0"/><ellipse rx="20.782188" ry="27.633174" transform="matrix(1.202956 0.030074-.013812 0.552476 199.196539 104.682374)" stroke-width="0"/></svg>